<svg width="104" height="23" viewBox="0 0 104 23" fill="none" xmlns="http://www.w3.org/2000/svg">
<path d="M4.28719 3.09579V22H0.495483V3.09579H4.28719ZM16.348 6.77919C18.1355 6.77919 19.5799 7.34789 20.6813 8.48539C21.7827 9.60489 22.3334 11.1757 22.3334 13.1979V22H18.5417V13.7125C18.5417 12.5208 18.2438 11.609 17.648 10.9771C17.0521 10.3271 16.2396 10.0021 15.2105 10.0021C14.1632 10.0021 13.3327 10.3271 12.7188 10.9771C12.123 11.609 11.8251 12.5208 11.8251 13.7125V22H8.03339V6.99579H11.8251V8.86459C12.3306 8.21459 12.9716 7.70899 13.748 7.34789C14.5424 6.96869 15.4091 6.77919 16.348 6.77919ZM32.8182 10.1104H30.1911V22H26.3453V10.1104H24.6391V6.99579H26.3453V6.23749C26.3453 4.39579 26.8689 3.04169 27.9161 2.17499C28.9634 1.30829 30.5432 0.902093 32.6557 0.956293V4.15209C31.7349 4.13399 31.0939 4.28749 30.7328 4.61249C30.3717 4.93749 30.1911 5.52429 30.1911 6.37289V6.99579H32.8182V10.1104ZM37.1983 5.20829C36.5303 5.20829 35.9705 5.00069 35.5192 4.58539C35.0858 4.15209 34.8692 3.61939 34.8692 2.98749C34.8692 2.35559 35.0858 1.83189 35.5192 1.41669C35.9705 0.983294 36.5303 0.766693 37.1983 0.766693C37.8664 0.766693 38.4171 0.983294 38.8504 1.41669C39.3018 1.83189 39.5275 2.35559 39.5275 2.98749C39.5275 3.61939 39.3018 4.15209 38.8504 4.58539C38.4171 5.00069 37.8664 5.20829 37.1983 5.20829ZM39.0671 6.99579V22H35.2754V6.99579H39.0671ZM51.128 6.77919C52.915 6.77919 54.36 7.34789 55.461 8.48539C56.563 9.60489 57.113 11.1757 57.113 13.1979V22H53.322V13.7125C53.322 12.5208 53.024 11.609 52.428 10.9771C51.832 10.3271 51.02 10.0021 49.99 10.0021C48.943 10.0021 48.113 10.3271 47.499 10.9771C46.903 11.609 46.605 12.5208 46.605 13.7125V22H42.8133V6.99579H46.605V8.86459C47.11 8.21459 47.751 7.70899 48.528 7.34789C49.322 6.96869 50.189 6.77919 51.128 6.77919ZM62.642 5.20829C61.974 5.20829 61.414 5.00069 60.963 4.58539C60.529 4.15209 60.313 3.61939 60.313 2.98749C60.313 2.35559 60.529 1.83189 60.963 1.41669C61.414 0.983294 61.974 0.766693 62.642 0.766693C63.31 0.766693 63.861 0.983294 64.294 1.41669C64.745 1.83189 64.971 2.35559 64.971 2.98749C64.971 3.61939 64.745 4.15209 64.294 4.58539C63.861 5.00069 63.31 5.20829 62.642 5.20829ZM64.511 6.99579V22H60.719V6.99579H64.511ZM71.723 18.8854H78.413V22H67.417V18.9396L73.971 10.1104H67.444V6.99579H78.332V10.0563L71.723 18.8854ZM80.374 14.4437C80.374 12.9271 80.672 11.5819 81.268 10.4083C81.881 9.23469 82.703 8.33189 83.732 7.69999C84.779 7.06809 85.944 6.75209 87.226 6.75209C88.345 6.75209 89.32 6.97779 90.151 7.42919C91 7.88059 91.677 8.44929 92.182 9.13539V6.99579H96.001V22H92.182V19.8063C91.695 20.5104 91.018 21.0972 90.151 21.5667C89.302 22.0181 88.318 22.2438 87.199 22.2438C85.935 22.2438 84.779 21.9188 83.732 21.2688C82.703 20.6188 81.881 19.7069 81.268 18.5333C80.672 17.3417 80.374 15.9785 80.374 14.4437ZM92.182 14.4979C92.182 13.5771 92.002 12.7917 91.64 12.1417C91.279 11.4736 90.792 10.9681 90.178 10.625C89.564 10.2639 88.905 10.0833 88.201 10.0833C87.497 10.0833 86.847 10.2549 86.251 10.5979C85.655 10.941 85.168 11.4465 84.788 12.1146C84.427 12.7646 84.247 13.541 84.247 14.4437C84.247 15.3465 84.427 16.141 84.788 16.8271C85.168 17.4951 85.655 18.0097 86.251 18.3708C86.865 18.7319 87.515 18.9125 88.201 18.9125C88.905 18.9125 89.564 18.741 90.178 18.3979C90.792 18.0368 91.279 17.5312 91.64 16.8812C92.002 16.2132 92.182 15.4188 92.182 14.4979ZM101.627 5.20829C100.959 5.20829 100.399 5.00069 99.948 4.58539C99.515 4.15209 99.298 3.61939 99.298 2.98749C99.298 2.35559 99.515 1.83189 99.948 1.41669C100.399 0.983294 100.959 0.766693 101.627 0.766693C102.295 0.766693 102.846 0.983294 103.279 1.41669C103.731 1.83189 103.956 2.35559 103.956 2.98749C103.956 3.61939 103.731 4.15209 103.279 4.58539C102.846 5.00069 102.295 5.20829 101.627 5.20829ZM103.496 6.99579V22H99.704V6.99579H103.496Z" fill="white"/>
</svg>
